<svg width="22" height="22" viewBox="0 0 22 22" fill="none" xmlns="http://www.w3.org/2000/svg">
<path fill-rule="evenodd" clip-rule="evenodd" d="M11 22C12.4445 22 13.8749 21.7155 15.2095 21.1627C16.5441 20.6099 17.7567 19.7996 18.7782 18.7782C19.7996 17.7567 20.6099 16.5441 21.1627 15.2095C21.7155 13.8749 22 12.4445 22 11C22 9.55546 21.7155 8.12506 21.1627 6.79048C20.6099 5.4559 19.7996 4.24327 18.7782 3.22183C17.7567 2.20038 16.5441 1.39013 15.2095 0.837325C13.8749 0.284523 12.4445 -2.15253e-08 11 0C8.08262 4.34724e-08 5.28473 1.15893 3.22183 3.22183C1.15893 5.28473 0 8.08262 0 11C0 13.9174 1.15893 16.7153 3.22183 18.7782C5.28473 20.8411 8.08262 22 11 22ZM10.7164 15.4489L16.1874 8.88378C16.5409 8.4595 16.4836 7.82894 16.0593 7.47537L15.7184 7.19123C15.2941 6.83769 14.6636 6.89498 14.31 7.3192L10.3959 12.0153C10.0193 12.467 9.33618 12.4979 8.92044 12.082L7.68233 10.8433C7.29183 10.4526 6.65854 10.4526 6.26796 10.8432L5.95411 11.157C5.56358 11.5475 5.56358 12.1807 5.95411 12.5712L8.91367 15.5308L9.08545 15.7026C9.50122 16.1183 10.1842 16.0874 10.5607 15.6357L10.7164 15.4489Z" fill="#00B2A7"/>
</svg>
