<svg width="13" height="13" viewBox="0 0 13 13" fill="none" xmlns="http://www.w3.org/2000/svg">
<g clip-path="url(#clip0_796_1147)">
<path d="M5.41536 12.9996H10.832C12.132 12.9996 12.7495 10.833 12.9987 5.68714C13.0001 5.51073 12.9668 5.33576 12.9006 5.17223C12.8344 5.00871 12.7367 4.85982 12.6129 4.73407C12.4892 4.60832 12.3419 4.50818 12.1795 4.43936C12.017 4.37054 11.8426 4.33439 11.6662 4.33297H8.66536V1.62463C8.67134 1.40961 8.63339 1.19563 8.55385 0.995773C8.4743 0.795916 8.35482 0.614386 8.20272 0.462283C8.05061 0.31018 7.86908 0.190701 7.66923 0.111153C7.46937 0.0316041 7.25539 -0.0063423 7.04036 -0.000365949C6.82534 -0.0063423 6.61136 0.0316041 6.4115 0.111153C6.21165 0.190701 6.03012 0.31018 5.87801 0.462283C5.72591 0.614386 5.60643 0.795916 5.52688 0.995773C5.44733 1.19563 5.40939 1.40961 5.41536 1.62463C5.41536 3.87797 4.62453 4.39797 4.6137 4.39797C4.53104 4.44798 4.46205 4.51769 4.4129 4.60087C4.36375 4.68405 4.33597 4.7781 4.33203 4.87464V11.9163C4.33203 12.2036 4.44617 12.4792 4.64933 12.6823C4.8525 12.8855 5.12805 12.9996 5.41536 12.9996Z" fill="#EF4667"/>
<path d="M2.16667 4.33301H1.08333C0.485025 4.33301 0 4.81803 0 5.41634V11.9163C0 12.5147 0.485025 12.9997 1.08333 12.9997H2.16667C2.76498 12.9997 3.25 12.5147 3.25 11.9163V5.41634C3.25 4.81803 2.76498 4.33301 2.16667 4.33301Z" fill="#EF4667"/>
</g>
<defs>
<clipPath id="clip0_796_1147">
<rect width="13" height="13" fill="white"/>
</clipPath>
</defs>
</svg>
