<svg width="50" height="50" viewBox="0 0 50 50" fill="none" xmlns="http://www.w3.org/2000/svg">
<path d="M8.33203 39.5837V20.8337C8.33203 20.1739 8.47995 19.5489 8.77578 18.9587C9.07161 18.3684 9.47925 17.8823 9.9987 17.5003L22.4987 8.12533C23.2279 7.56977 24.0612 7.29199 24.9987 7.29199C25.9362 7.29199 26.7695 7.56977 27.4987 8.12533L39.9987 17.5003C40.5195 17.8823 40.9279 18.3684 41.2237 18.9587C41.5195 19.5489 41.6668 20.1739 41.6654 20.8337V39.5837C41.6654 40.7295 41.257 41.7107 40.4404 42.5274C39.6237 43.3441 38.6431 43.7517 37.4987 43.7503H31.2487C30.6584 43.7503 30.164 43.5503 29.7654 43.1503C29.3668 42.7503 29.1668 42.2559 29.1654 41.667V31.2503C29.1654 30.66 28.9654 30.1656 28.5654 29.767C28.1654 29.3684 27.6709 29.1684 27.082 29.167H22.9154C22.3251 29.167 21.8306 29.367 21.432 29.767C21.0334 30.167 20.8334 30.6614 20.832 31.2503V41.667C20.832 42.2573 20.632 42.7524 20.232 43.1524C19.832 43.5524 19.3376 43.7517 18.7487 43.7503H12.4987C11.3529 43.7503 10.3723 43.3427 9.55703 42.5274C8.74175 41.7121 8.33342 40.7309 8.33203 39.5837Z" fill="#00B2A7"/>
</svg>
