<svg width="30" height="28" viewBox="0 0 30 28" fill="none" xmlns="http://www.w3.org/2000/svg">
<path d="M15 28C14.5368 27.9994 14.0845 27.8579 13.702 27.5939C8.03475 23.7037 5.58079 21.0365 4.22726 19.3689C1.3428 15.8142 -0.0381395 12.1647 0.000800739 8.2126C0.046231 3.68375 3.63955 0 8.01095 0C11.1896 0 13.3912 1.81052 14.6733 3.31844C14.714 3.36572 14.7641 3.40364 14.8205 3.42963C14.8768 3.45561 14.9381 3.46906 15 3.46906C15.0619 3.46906 15.1232 3.45561 15.1795 3.42963C15.2359 3.40364 15.2861 3.36572 15.3267 3.31844C16.6088 1.80906 18.8104 0 21.9891 0C26.3605 0 29.9538 3.68375 29.9992 8.21333C30.0381 12.1661 28.6558 15.8156 25.7727 19.3696C24.4192 21.0372 21.9653 23.7045 16.298 27.5946C15.9154 27.8584 15.4631 27.9996 15 28Z" fill="#EF4667"/>
</svg>
