<svg width="30" height="28" viewBox="0 0 30 28" fill="none" xmlns="http://www.w3.org/2000/svg">
<path d="M21.9893 1C25.7796 1.00012 28.9588 4.20933 28.999 8.22363C29.0352 11.9076 27.7566 15.3363 24.9961 18.7393C23.7074 20.3269 21.3264 22.9307 15.7324 26.7705L15.7305 26.7715C15.5141 26.9206 15.2596 26.9986 15 26.999C14.7406 26.9984 14.4867 26.9196 14.2705 26.7705L14.2676 26.7695L13.2559 26.0635C8.38041 22.6079 6.212 20.2267 5.00391 18.7383C2.24216 15.3347 0.96473 11.9061 1.00098 8.22266C1.04124 4.20914 4.22031 1.00012 8.01074 1C10.7749 1 12.7234 2.5691 13.9111 3.96582L13.915 3.96973C14.0487 4.12536 14.2141 4.25151 14.4014 4.33789C14.5887 4.42429 14.7932 4.46875 15 4.46875C15.2068 4.46875 15.4113 4.42429 15.5986 4.33789C15.7859 4.25151 15.9513 4.12536 16.085 3.96973L16.0889 3.96582C17.2761 2.5682 19.2246 1 21.9893 1Z" stroke="#EF4667" stroke-width="2"/>
</svg>
