<svg width="24" height="25" viewBox="0 0 24 25" fill="none" xmlns="http://www.w3.org/2000/svg">
<path d="M8.62154 1.14978C9.58999 0.404254 10.7778 0 12 0C13.2222 0 14.41 0.404254 15.3785 1.14978L21.84 6.12147C22.5122 6.63894 23.0566 7.30392 23.4311 8.0651C23.8056 8.82627 24.0002 9.66331 24 10.5116V18.8599C24 20.3288 23.4165 21.7376 22.3778 22.7762C21.3392 23.8149 19.9304 24.3984 18.4615 24.3984H5.53846C4.06957 24.3984 2.66084 23.8149 1.62218 22.7762C0.583515 21.7376 1.94834e-07 20.3288 1.94834e-07 18.8599V10.5116C-0.000224801 9.66331 0.194424 8.82627 0.56893 8.0651C0.943437 7.30392 1.48779 6.63894 2.16 6.12147L8.62154 1.14978ZM10.1538 12.3984C8.88 12.3984 7.84615 13.4322 7.84615 14.7061V21.6292H16.1538V14.7061C16.1538 13.4322 15.12 12.3984 13.8462 12.3984H10.1538Z" fill="#00B2A7"/>
</svg>
