<svg width="50" height="50" viewBox="0 0 50 50" fill="none" xmlns="http://www.w3.org/2000/svg">
<rect width="50" height="50" rx="25" fill="#F8BED6" fill-opacity="0.5"/>
<path d="M32.7143 26.2857H26.2857V32.7143C26.2857 33.0553 26.1503 33.3823 25.9091 33.6234C25.668 33.8645 25.341 34 25 34C24.659 34 24.332 33.8645 24.0909 33.6234C23.8497 33.3823 23.7143 33.0553 23.7143 32.7143V26.2857H17.2857C16.9447 26.2857 16.6177 26.1503 16.3766 25.9091C16.1355 25.668 16 25.341 16 25C16 24.659 16.1355 24.332 16.3766 24.0909C16.6177 23.8497 16.9447 23.7143 17.2857 23.7143H23.7143V17.2857C23.7143 16.9447 23.8497 16.6177 24.0909 16.3766C24.332 16.1355 24.659 16 25 16C25.341 16 25.668 16.1355 25.9091 16.3766C26.1503 16.6177 26.2857 16.9447 26.2857 17.2857V23.7143H32.7143C33.0553 23.7143 33.3823 23.8497 33.6234 24.0909C33.8645 24.332 34 24.659 34 25C34 25.341 33.8645 25.668 33.6234 25.9091C33.3823 26.1503 33.0553 26.2857 32.7143 26.2857Z" fill="#EF4667"/>
</svg>
