<svg width="42" height="38" viewBox="0 0 42 38" fill="none" xmlns="http://www.w3.org/2000/svg">
<path d="M13.9305 11.5229L2.08603 13.1941L1.87625 13.2357C1.55867 13.3177 1.26916 13.4803 1.03728 13.7068C0.805401 13.9334 0.639456 14.2158 0.556394 14.5251C0.473331 14.8345 0.476128 15.1598 0.564498 15.4678C0.652868 15.7757 0.823644 16.0554 1.05939 16.2781L9.64012 24.4064L7.61654 35.8878L7.5924 36.0865C7.57296 36.4062 7.64116 36.7251 7.79002 37.0106C7.93889 37.2962 8.16306 37.5381 8.43959 37.7117C8.71611 37.8852 9.03506 37.9841 9.36377 37.9982C9.69248 38.0123 10.0191 37.9412 10.3103 37.792L20.9035 32.372L31.4725 37.792L31.6582 37.8751C31.9646 37.9926 32.2976 38.0286 32.6231 37.9795C32.9486 37.9304 33.2547 37.7979 33.5102 37.5956C33.7657 37.3933 33.9613 37.1285 34.0769 36.8284C34.1925 36.5283 34.224 36.2037 34.1681 35.8878L32.1427 24.4064L40.7272 16.2763L40.872 16.1227C41.0788 15.8748 41.2144 15.5779 41.265 15.2624C41.3156 14.9468 41.2793 14.6239 41.1599 14.3264C41.0404 14.0289 40.8421 13.7676 40.5851 13.569C40.3281 13.3704 40.0216 13.2417 39.6968 13.1959L27.8523 11.5229L22.5576 1.08034C22.4044 0.77778 22.1672 0.523004 21.8729 0.344846C21.5786 0.166689 21.2389 0.0722656 20.8923 0.0722656C20.5457 0.0722656 20.2061 0.166689 19.9118 0.344846C19.6175 0.523004 19.3803 0.77778 19.2271 1.08034L13.9305 11.5229Z" fill="#EBEDF1"/>
</svg>
