<svg width="42" height="38" viewBox="0 0 42 38" fill="none" xmlns="http://www.w3.org/2000/svg">
<path d="M14.0164 11.4507L2.17197 13.1218L1.96218 13.1634C1.64461 13.2454 1.3551 13.408 1.12322 13.6346C0.891338 13.8611 0.725393 14.1435 0.642331 14.4529C0.559269 14.7622 0.562066 15.0875 0.650435 15.3955C0.738805 15.7035 0.909582 15.9831 1.14533 16.2058L9.72605 24.3341L7.70247 35.8155L7.67834 36.0143C7.6589 36.3339 7.7271 36.6528 7.87596 36.9384C8.02482 37.2239 8.249 37.4659 8.52552 37.6394C8.80205 37.8129 9.121 37.9118 9.44971 37.9259C9.77842 37.94 10.1051 37.8689 10.3962 37.7198L20.9894 32.2997L31.5585 37.7198L31.7441 37.8029C32.0505 37.9203 32.3836 37.9563 32.709 37.9072C33.0345 37.8581 33.3407 37.7256 33.5961 37.5233C33.8516 37.321 34.0472 37.0563 34.1628 36.7561C34.2784 36.456 34.3099 36.1314 34.2541 35.8155L32.2286 24.3341L40.8131 16.204L40.9579 16.0505C41.1647 15.8025 41.3004 15.5057 41.351 15.1901C41.4015 14.8746 41.3653 14.5516 41.2458 14.2541C41.1264 13.9567 40.9281 13.6953 40.671 13.4968C40.414 13.2982 40.1075 13.1694 39.7827 13.1237L27.9383 11.4507L22.6436 1.00807C22.4904 0.705515 22.2532 0.450738 21.9589 0.272581C21.6646 0.0944231 21.3249 0 20.9783 0C20.6317 0 20.292 0.0944231 19.9977 0.272581C19.7034 0.450738 19.4662 0.705515 19.313 1.00807L14.0164 11.4507Z" fill="#EBEDF1"/>
<path d="M14.0164 11.4507L2.17197 13.1218L1.96218 13.1634C1.64461 13.2454 1.3551 13.408 1.12322 13.6346C0.891338 13.8611 0.725393 14.1435 0.642331 14.4529C0.559269 14.7622 0.562066 15.0875 0.650435 15.3955C0.738805 15.7035 0.909582 15.9831 1.14533 16.2058L9.72605 24.3341L7.70247 35.8155L7.67834 36.0143C7.6589 36.3339 7.7271 36.6528 7.87596 36.9384C8.02482 37.2239 8.249 37.4659 8.52552 37.6394C8.80205 37.8129 9.121 37.9118 9.44971 37.9259C9.77842 37.94 10.1051 37.8689 10.3962 37.7198L20.9894 32.2997L31.5585 37.7198L31.7441 37.8029C32.0505 37.9203 32.3836 37.9563 32.709 37.9072C33.0345 37.8581 33.3407 37.7256 33.5961 37.5233C33.8516 37.321 34.0472 37.0563 34.1628 36.7561C34.2784 36.456 34.3099 36.1314 34.2541 35.8155L32.2286 24.3341L40.8131 16.204L40.9579 16.0505C41.1647 15.8025 41.3004 15.5057 41.351 15.1901C41.4015 14.8746 41.3653 14.5516 41.2458 14.2541C41.1264 13.9567 40.9281 13.6953 40.671 13.4968C40.414 13.2982 40.1075 13.1694 39.7827 13.1237L27.9383 11.4507L22.6436 1.00807C22.4904 0.705515 22.2532 0.450738 21.9589 0.272581C21.6646 0.0944231 21.3249 0 20.9783 0C20.6317 0 20.292 0.0944231 19.9977 0.272581C19.7034 0.450738 19.4662 0.705515 19.313 1.00807L14.0164 11.4507Z" fill="url(#paint0_linear_1334_45)"/>
<defs>
<linearGradient id="paint0_linear_1334_45" x1="22.5" y1="19" x2="20" y2="19" gradientUnits="userSpaceOnUse">
<stop stop-color="#D7D8DD"/>
<stop offset="1" stop-color="#EF4667"/>
</linearGradient>
</defs>
</svg>
