<svg width="41" height="38" viewBox="0 0 41 38" fill="none" xmlns="http://www.w3.org/2000/svg">
<path d="M13.4344 11.4507L1.58994 13.1218L1.38015 13.1634C1.06258 13.2454 0.77307 13.408 0.541188 13.6346C0.309307 13.8611 0.143362 14.1435 0.0602998 14.4529C-0.0227624 14.7622 -0.0199656 15.0875 0.0684042 15.3955C0.156774 15.7035 0.327551 15.9831 0.563295 16.2058L9.14402 24.3341L7.12044 35.8155L7.09631 36.0143C7.07687 36.3339 7.14507 36.6528 7.29393 36.9384C7.44279 37.2239 7.66696 37.4659 7.94349 37.6394C8.22002 37.8129 8.53897 37.9118 8.86768 37.9259C9.19639 37.94 9.52305 37.8689 9.81422 37.7198L20.4074 32.2997L30.9764 37.7198L31.1621 37.8029C31.4685 37.9203 31.8015 37.9563 32.127 37.9072C32.4525 37.8581 32.7586 37.7256 33.0141 37.5233C33.2696 37.321 33.4652 37.0563 33.5808 36.7561C33.6964 36.456 33.7279 36.1314 33.6721 35.8155L31.6466 24.3341L40.2311 16.204L40.3759 16.0505C40.5827 15.8025 40.7183 15.5057 40.7689 15.1901C40.8195 14.8746 40.7832 14.5516 40.6638 14.2541C40.5443 13.9567 40.346 13.6953 40.089 13.4968C39.832 13.2982 39.5255 13.1694 39.2007 13.1237L27.3563 11.4507L22.0615 1.00807C21.9083 0.705515 21.6711 0.450738 21.3768 0.272581C21.0825 0.0944231 20.7428 0 20.3962 0C20.0496 0 19.71 0.0944231 19.4157 0.272581C19.1214 0.450738 18.8842 0.705515 18.731 1.00807L13.4344 11.4507Z" fill="#EF4667"/>
</svg>
