<svg width="42" height="38" viewBox="0 0 42 38" fill="none" xmlns="http://www.w3.org/2000/svg">
<path d="M14.2254 11.4507L2.38095 13.1218L2.17117 13.1634C1.8536 13.2454 1.56409 13.408 1.3322 13.6346C1.10032 13.8611 0.934378 14.1435 0.851315 14.4529C0.768253 14.7622 0.77105 15.0875 0.85942 15.3955C0.94779 15.7035 1.11857 15.9831 1.35431 16.2058L9.93504 24.3341L7.91146 35.8155L7.88732 36.0143C7.86788 36.3339 7.93609 36.6528 8.08495 36.9384C8.23381 37.2239 8.45798 37.4659 8.73451 37.6394C9.01104 37.8129 9.32998 37.9118 9.6587 37.9259C9.98741 37.94 10.3141 37.8689 10.6052 37.7198L21.1984 32.2997L31.7674 37.7198L31.9531 37.8029C32.2595 37.9203 32.5926 37.9563 32.918 37.9072C33.2435 37.8581 33.5496 37.7256 33.8051 37.5233C34.0606 37.321 34.2562 37.0563 34.3718 36.7561C34.4874 36.456 34.5189 36.1314 34.4631 35.8155L32.4376 24.3341L41.0221 16.204L41.1669 16.0505C41.3737 15.8025 41.5094 15.5057 41.5599 15.1901C41.6105 14.8746 41.5742 14.5516 41.4548 14.2541C41.3354 13.9567 41.137 13.6953 40.88 13.4968C40.623 13.2982 40.3165 13.1694 39.9917 13.1237L28.1473 11.4507L22.8525 1.00807C22.6993 0.705515 22.4622 0.450738 22.1678 0.272581C21.8735 0.0944231 21.5339 0 21.1873 0C20.8407 0 20.501 0.0944231 20.2067 0.272581C19.9124 0.450738 19.6752 0.705515 19.522 1.00807L14.2254 11.4507Z" fill="#D7D8DD"/>
<path d="M14.2254 11.4507L2.38095 13.1218L2.17117 13.1634C1.8536 13.2454 1.56409 13.408 1.3322 13.6346C1.10032 13.8611 0.934378 14.1435 0.851315 14.4529C0.768253 14.7622 0.77105 15.0875 0.85942 15.3955C0.94779 15.7035 1.11857 15.9831 1.35431 16.2058L9.93504 24.3341L7.91146 35.8155L7.88732 36.0143C7.86788 36.3339 7.93609 36.6528 8.08495 36.9384C8.23381 37.2239 8.45798 37.4659 8.73451 37.6394C9.01104 37.8129 9.32998 37.9118 9.6587 37.9259C9.98741 37.94 10.3141 37.8689 10.6052 37.7198L21.1984 32.2997L31.7674 37.7198L31.9531 37.8029C32.2595 37.9203 32.5926 37.9563 32.918 37.9072C33.2435 37.8581 33.5496 37.7256 33.8051 37.5233C34.0606 37.321 34.2562 37.0563 34.3718 36.7561C34.4874 36.456 34.5189 36.1314 34.4631 35.8155L32.4376 24.3341L41.0221 16.204L41.1669 16.0505C41.3737 15.8025 41.5094 15.5057 41.5599 15.1901C41.6105 14.8746 41.5742 14.5516 41.4548 14.2541C41.3354 13.9567 41.137 13.6953 40.88 13.4968C40.623 13.2982 40.3165 13.1694 39.9917 13.1237L28.1473 11.4507L22.8525 1.00807C22.6993 0.705515 22.4622 0.450738 22.1678 0.272581C21.8735 0.0944231 21.5339 0 21.1873 0C20.8407 0 20.501 0.0944231 20.2067 0.272581C19.9124 0.450738 19.6752 0.705515 19.522 1.00807L14.2254 11.4507Z" fill="url(#paint0_linear_1334_47)"/>
<defs>
<linearGradient id="paint0_linear_1334_47" x1="21.291" y1="19" x2="14.291" y2="19" gradientUnits="userSpaceOnUse">
<stop stop-color="#D7D8DD"/>
<stop offset="1" stop-color="#EF4667"/>
</linearGradient>
</defs>
</svg>
