<svg width="42" height="38" viewBox="0 0 42 38" fill="none" xmlns="http://www.w3.org/2000/svg">
<path d="M13.8074 11.4507L1.96298 13.1218L1.7532 13.1634C1.43563 13.2454 1.14612 13.408 0.914235 13.6346C0.682354 13.8611 0.516409 14.1435 0.433347 14.4529C0.350284 14.7622 0.353081 15.0875 0.441451 15.3955C0.529821 15.7035 0.700598 15.9831 0.936342 16.2058L9.51707 24.3341L7.49349 35.8155L7.46935 36.0143C7.44991 36.3339 7.51812 36.6528 7.66698 36.9384C7.81584 37.2239 8.04001 37.4659 8.31654 37.6394C8.59307 37.8129 8.91202 37.9118 9.24073 37.9259C9.56944 37.94 9.8961 37.8689 10.1873 37.7198L20.7804 32.2997L31.3495 37.7198L31.5351 37.8029C31.8416 37.9203 32.1746 37.9563 32.5 37.9072C32.8255 37.8581 33.1317 37.7256 33.3871 37.5233C33.6426 37.321 33.8382 37.0563 33.9538 36.7561C34.0695 36.456 34.101 36.1314 34.0451 35.8155L32.0197 24.3341L40.6041 16.204L40.7489 16.0505C40.9558 15.8025 41.0914 15.5057 41.142 15.1901C41.1925 14.8746 41.1563 14.5516 41.0368 14.2541C40.9174 13.9567 40.7191 13.6953 40.4621 13.4968C40.205 13.2982 39.8985 13.1694 39.5737 13.1237L27.7293 11.4507L22.4346 1.00807C22.2814 0.705515 22.0442 0.450738 21.7499 0.272581C21.4556 0.0944231 21.1159 0 20.7693 0C20.4227 0 20.083 0.0944231 19.7887 0.272581C19.4944 0.450738 19.2572 0.705515 19.104 1.00807L13.8074 11.4507Z" fill="#EBEDF1"/>
<path d="M13.8074 11.4507L1.96298 13.1218L1.7532 13.1634C1.43563 13.2454 1.14612 13.408 0.914235 13.6346C0.682354 13.8611 0.516409 14.1435 0.433347 14.4529C0.350284 14.7622 0.353081 15.0875 0.441451 15.3955C0.529821 15.7035 0.700598 15.9831 0.936342 16.2058L9.51707 24.3341L7.49349 35.8155L7.46935 36.0143C7.44991 36.3339 7.51812 36.6528 7.66698 36.9384C7.81584 37.2239 8.04001 37.4659 8.31654 37.6394C8.59307 37.8129 8.91202 37.9118 9.24073 37.9259C9.56944 37.94 9.8961 37.8689 10.1873 37.7198L20.7804 32.2997L31.3495 37.7198L31.5351 37.8029C31.8416 37.9203 32.1746 37.9563 32.5 37.9072C32.8255 37.8581 33.1317 37.7256 33.3871 37.5233C33.6426 37.321 33.8382 37.0563 33.9538 36.7561C34.0695 36.456 34.101 36.1314 34.0451 35.8155L32.0197 24.3341L40.6041 16.204L40.7489 16.0505C40.9558 15.8025 41.0914 15.5057 41.142 15.1901C41.1925 14.8746 41.1563 14.5516 41.0368 14.2541C40.9174 13.9567 40.7191 13.6953 40.4621 13.4968C40.205 13.2982 39.8985 13.1694 39.5737 13.1237L27.7293 11.4507L22.4346 1.00807C22.2814 0.705515 22.0442 0.450738 21.7499 0.272581C21.4556 0.0944231 21.1159 0 20.7693 0C20.4227 0 20.083 0.0944231 19.7887 0.272581C19.4944 0.450738 19.2572 0.705515 19.104 1.00807L13.8074 11.4507Z" fill="url(#paint0_linear_1334_63)"/>
<defs>
<linearGradient id="paint0_linear_1334_63" x1="31.373" y1="19" x2="25.373" y2="19" gradientUnits="userSpaceOnUse">
<stop stop-color="#D7D8DD"/>
<stop offset="1" stop-color="#EF4667"/>
</linearGradient>
</defs>
</svg>
